<svg xmlns="http://www.w3.org/2000/svg" id="Layer_2" data-name="Layer 2" viewBox="0 0 152.81 48.47"><defs><style>      .cls-1 {        fill: #fff;        stroke-width: 0px;      }    </style></defs><g id="Layer_1-2" data-name="Layer 1"><g><g><path class="cls-1" d="M145.79,34.99c-1.75,0-3.43-.66-4.73-1.85l-.12-.11-.12.11c-1.3,1.19-2.98,1.85-4.73,1.85-1.86,0-3.66-.75-4.96-2.05-1.31-1.3-2.06-3.11-2.05-4.96V7.9h4.32v20.07c0,.73.27,1.39.79,1.9.52.52,1.18.79,1.9.79.73,0,1.38-.27,1.9-.79.52-.52.79-1.18.79-1.9V7.9h4.32v20.07c0,.73.27,1.38.79,1.9.52.52,1.18.79,1.91.79.73,0,1.38-.27,1.9-.79.52-.52.79-1.18.79-1.9V7.9h4.32v20.07c0,1.85-.75,3.65-2.05,4.96-1.3,1.31-3.11,2.05-4.95,2.05h0Z"></path><path class="cls-1" d="M86.76,35.02c-.78,0-1.53-.17-2.22-.51-.74-.36-1.38-.91-1.84-1.59-.33-.47-.57-1.01-.73-1.58l-5.32-23.44h4.43l5.06,22.33c.03.1.06.17.1.24l.1.1c.11.09.27.14.42.14.12,0,.24-.03.34-.08.09-.05.15-.1.2-.18.03-.05.07-.12.1-.24l4.36-22.3h4.4l-4.54,23.21c-.14.64-.38,1.19-.7,1.69-.31.48-.71.9-1.17,1.24-.86.64-1.9.97-2.99.97"></path><path class="cls-1" d="M116.66,34.99c-1.99,0-3.93-.8-5.32-2.2-1.4-1.4-2.21-3.34-2.21-5.33v-11.78c0-2.05.83-4.05,2.28-5.5,1.44-1.45,3.45-2.28,5.49-2.28,2.15,0,4.15.83,5.6,2.28,1.45,1.44,2.28,3.45,2.28,5.5v7.06h-4.49s-6.84,0-6.84,0v4.73c0,.85.33,1.66.94,2.27.61.61,1.42.94,2.27.94h.59c.85,0,1.66-.33,2.27-.94.43-.43.72-.96.86-1.54h4.36c-.17,1.74-.93,3.36-2.16,4.59-1.4,1.4-3.34,2.21-5.32,2.21h-.59ZM116.9,12.22c-.92,0-1.79.36-2.44,1.01-.65.66-1.01,1.52-1.01,2.44v2.73h7.01v-2.73c0-.92-.36-1.79-1.01-2.44-.66-.65-1.53-1.01-2.44-1.01h-.1Z"></path><rect class="cls-1" x="100.5" y="7.9" width="4.32" height="27.09"></rect><rect class="cls-1" x="100.5" y="0" width="4.32" height="4.32"></rect><rect class="cls-1" x="28.03" y="7.9" width="4.32" height="27.09"></rect><rect class="cls-1" x="28.03" y="38.56" width="4.32" height="4.32"></rect><path class="cls-1" d="M19.41,34.99V14.91c0-.73-.27-1.39-.79-1.9-.52-.52-1.18-.79-1.9-.79-.73,0-1.39.27-1.9.79-.52.52-.79,1.18-.79,1.9v20.07s-4.32,0-4.32,0V14.91c0-.73-.27-1.38-.79-1.9-.52-.52-1.18-.79-1.9-.79-.73,0-1.39.27-1.9.79-.52.52-.79,1.18-.79,1.9v20.07H0V14.91c0-1.85.75-3.66,2.05-4.96,1.3-1.31,3.11-2.05,4.95-2.05s3.44.66,4.74,1.85l.12.11.12-.11c1.3-1.19,2.98-1.85,4.73-1.85,1.86,0,3.66.75,4.96,2.05,1.31,1.3,2.06,3.11,2.05,4.96v20.07h-4.32Z"></path><path class="cls-1" d="M64.18,34.99c-1.99,0-3.93-.8-5.32-2.2-1.4-1.4-2.21-3.34-2.21-5.33v-11.72c0-2.05.83-4.05,2.28-5.5,1.44-1.44,3.43-2.27,5.47-2.28v4.32c-.91,0-1.76.37-2.41,1.01-.65.66-1.01,1.52-1.01,2.44v11.72c0,.85.33,1.66.94,2.27.61.61,1.42.94,2.27.94h.59c.85,0,1.66-.33,2.27-.94.61-.61.94-1.42.94-2.27v-11.87s0-6.95,0-6.95v-.13s0-8.51,0-8.51h4.32v27.46c0,1.99-.8,3.93-2.2,5.32-1.4,1.4-3.34,2.21-5.32,2.21h-.59Z"></path><path class="cls-1" d="M48,35.02V15.68c0-.92-.36-1.79-1.01-2.44-.66-.65-1.53-1.01-2.44-1.01-1.01,0-1.88.36-2.54,1.01-.65.66-1.01,1.52-1.01,2.44v19.34s-4.32,0-4.32,0V15.68c0-2.05.83-4.05,2.28-5.5,1.44-1.45,3.45-2.28,5.49-2.28,2.15,0,4.15.83,5.6,2.28,1.45,1.44,2.28,3.45,2.28,5.5v19.34h-4.32Z"></path></g><g><path class="cls-1" d="M62.14,44.07l-.55.34c-.47-.63-1.12-.94-1.94-.94-.66,0-1.2.21-1.63.63-.43.42-.65.93-.65,1.54,0,.39.1.76.3,1.11.2.35.47.61.82.81.35.19.74.29,1.17.29.79,0,1.44-.31,1.94-.94l.55.36c-.26.39-.6.69-1.04.9-.43.21-.93.32-1.48.32-.85,0-1.56-.27-2.12-.81-.56-.54-.84-1.2-.84-1.97,0-.52.13-1,.39-1.45.26-.45.62-.8,1.08-1.05.46-.25.97-.38,1.54-.38.36,0,.7.05,1.03.16.33.11.61.25.84.43.23.17.43.4.59.67"></path><path class="cls-1" d="M63.95,42.96h.71v.79c.21-.31.43-.54.67-.69.23-.15.48-.23.73-.23.19,0,.4.06.61.18l-.36.58c-.15-.06-.27-.09-.37-.09-.23,0-.45.09-.67.28-.21.19-.38.48-.49.88-.09.31-.13.93-.13,1.86v1.82h-.71v-5.38Z"></path><path class="cls-1" d="M72.53,46.55l.58.31c-.19.38-.41.68-.66.91-.25.23-.53.41-.85.53-.31.12-.67.18-1.06.18-.88,0-1.56-.29-2.06-.86-.49-.58-.74-1.23-.74-1.95,0-.68.21-1.29.63-1.82.53-.68,1.24-1.02,2.13-1.02s1.65.35,2.2,1.04c.39.49.59,1.1.59,1.84h-4.84c.01.62.21,1.14.6,1.54.39.4.86.6,1.43.6.27,0,.54-.05.8-.14.26-.1.48-.22.66-.38.18-.16.38-.41.59-.76M72.53,45.1c-.09-.37-.23-.66-.4-.89s-.41-.4-.7-.53c-.29-.14-.6-.2-.92-.2-.53,0-.98.17-1.36.51-.28.25-.49.62-.63,1.11h4.01Z"></path><path class="cls-1" d="M80.68,42.96v5.38h-.68v-.92c-.29.35-.62.62-.98.8-.36.18-.76.27-1.18.27-.76,0-1.41-.28-1.95-.83-.54-.55-.81-1.22-.81-2.01s.27-1.44.82-1.99c.54-.55,1.2-.83,1.96-.83.44,0,.84.09,1.2.28.36.19.67.47.94.85v-.99h.68ZM77.91,43.48c-.39,0-.74.09-1.07.28-.33.19-.59.46-.78.8-.19.34-.29.7-.29,1.09s.1.74.29,1.09c.19.35.46.61.78.81.33.19.68.29,1.05.29s.74-.1,1.08-.29c.34-.19.6-.45.78-.78.18-.33.27-.69.27-1.1,0-.62-.21-1.14-.61-1.56-.41-.42-.91-.63-1.51-.63"></path><polygon class="cls-1" points="83.58 40.96 84.27 40.96 84.27 42.96 85.37 42.96 85.37 43.55 84.27 43.55 84.27 48.33 83.58 48.33 83.58 43.55 82.63 43.55 82.63 42.96 83.58 42.96 83.58 40.96"></polygon><path class="cls-1" d="M87.39,40.74c.16,0,.29.06.4.17.11.11.17.25.17.41s-.06.29-.17.4c-.11.11-.25.17-.4.17s-.29-.06-.4-.17c-.11-.11-.17-.25-.17-.4s.06-.29.17-.41c.11-.11.24-.17.4-.17M87.04,42.96h.69v5.38h-.69v-5.38Z"></path><polygon class="cls-1" points="89.4 42.96 90.14 42.96 91.95 46.88 93.73 42.96 94.47 42.96 92.01 48.34 91.88 48.34 89.4 42.96"></polygon><path class="cls-1" d="M100.79,46.55l.58.31c-.19.38-.41.68-.66.91-.25.23-.53.41-.85.53-.31.12-.67.18-1.06.18-.88,0-1.56-.29-2.06-.86-.49-.58-.74-1.23-.74-1.95,0-.68.21-1.29.63-1.82.53-.68,1.24-1.02,2.13-1.02s1.65.35,2.2,1.04c.39.49.59,1.1.59,1.84h-4.84c.01.62.21,1.14.6,1.54.39.4.86.6,1.43.6.27,0,.54-.05.8-.14.26-.1.48-.22.66-.38.18-.16.38-.41.59-.76M100.79,45.1c-.09-.37-.23-.66-.4-.89s-.41-.4-.7-.53c-.29-.14-.6-.2-.92-.2-.53,0-.98.17-1.36.51-.28.25-.49.62-.63,1.11h4.01Z"></path><path class="cls-1" d="M109.83,43.54l-.45.46c-.37-.36-.73-.54-1.09-.54-.22,0-.42.07-.58.22-.16.15-.24.32-.24.52,0,.17.07.34.2.5.13.16.41.35.83.57.52.27.87.52,1.05.77.18.25.27.53.27.85,0,.44-.16.82-.47,1.12-.31.31-.7.46-1.16.46-.31,0-.61-.07-.89-.2-.28-.14-.52-.32-.7-.56l.44-.49c.35.4.73.6,1.13.6.28,0,.51-.09.71-.27.19-.18.29-.39.29-.63,0-.2-.06-.37-.19-.53-.13-.15-.42-.34-.87-.57-.49-.25-.82-.5-.99-.74-.18-.24-.26-.52-.26-.84,0-.41.14-.75.42-1.02.28-.27.63-.41,1.06-.41.5,0,.99.24,1.5.73"></path><path class="cls-1" d="M114.34,42.82c.83,0,1.52.3,2.06.9.5.55.74,1.2.74,1.94s-.26,1.41-.79,1.97c-.52.56-1.2.84-2.02.84s-1.5-.28-2.02-.84c-.52-.56-.79-1.22-.79-1.97s.25-1.39.74-1.94c.54-.6,1.23-.9,2.07-.9M114.34,43.49c-.58,0-1.07.21-1.48.64-.41.43-.62.94-.62,1.54,0,.39.09.75.28,1.09.19.34.44.6.76.78.32.18.67.27,1.06.27s.74-.09,1.06-.27c.32-.18.58-.44.76-.78.19-.34.28-.7.28-1.09,0-.6-.21-1.12-.62-1.54-.42-.43-.91-.64-1.48-.64"></path><rect class="cls-1" x="119.06" y="40.88" width=".69" height="7.46"></rect><path class="cls-1" d="M121.85,42.96h.69v2.51c0,.61.03,1.04.1,1.27.1.33.29.59.57.78.28.19.61.29,1,.29s.71-.09.98-.28c.27-.19.45-.43.56-.73.07-.21.1-.65.1-1.32v-2.51h.71v2.64c0,.74-.09,1.3-.26,1.68-.17.38-.43.67-.78.88-.35.21-.78.32-1.31.32s-.96-.11-1.31-.32c-.35-.21-.61-.51-.79-.89-.17-.38-.26-.95-.26-1.72v-2.59Z"></path><polygon class="cls-1" points="129.43 40.96 130.13 40.96 130.13 42.96 131.22 42.96 131.22 43.55 130.13 43.55 130.13 48.33 129.43 48.33 129.43 43.55 128.49 43.55 128.49 42.96 129.43 42.96 129.43 40.96"></polygon><path class="cls-1" d="M133.24,40.74c.16,0,.29.06.4.17.11.11.17.25.17.41s-.06.29-.17.4c-.11.11-.25.17-.4.17s-.29-.06-.4-.17c-.11-.11-.17-.25-.17-.4s.06-.29.17-.41c.11-.11.24-.17.4-.17M132.9,42.96h.69v5.38h-.69v-5.38Z"></path><path class="cls-1" d="M138.31,42.82c.83,0,1.52.3,2.06.9.5.55.74,1.2.74,1.94s-.26,1.41-.79,1.97c-.52.56-1.2.84-2.02.84s-1.5-.28-2.02-.84c-.52-.56-.79-1.22-.79-1.97s.25-1.39.74-1.94c.54-.6,1.23-.9,2.07-.9M138.31,43.49c-.58,0-1.07.21-1.48.64-.41.43-.62.94-.62,1.54,0,.39.09.75.28,1.09.19.34.44.6.76.78.32.18.67.27,1.06.27s.74-.09,1.06-.27c.32-.18.58-.44.76-.78.19-.34.28-.7.28-1.09,0-.6-.21-1.12-.62-1.54-.42-.43-.91-.64-1.48-.64"></path><path class="cls-1" d="M143.14,42.96h.69v.96c.28-.37.58-.65.92-.83.34-.18.7-.27,1.1-.27s.76.1,1.07.31c.31.2.54.48.69.83.15.35.22.89.22,1.62v2.77h-.69v-2.57c0-.62-.03-1.03-.08-1.24-.08-.36-.23-.62-.46-.8-.23-.18-.52-.27-.89-.27-.42,0-.79.14-1.13.42-.33.28-.55.62-.66,1.03-.07.27-.1.75-.1,1.46v1.97h-.69v-5.38Z"></path><path class="cls-1" d="M152.76,43.54l-.45.46c-.37-.36-.73-.54-1.09-.54-.22,0-.42.07-.58.22-.16.15-.24.32-.24.52,0,.17.07.34.2.5.13.16.41.35.83.57.52.27.87.52,1.05.77.18.25.27.53.27.85,0,.44-.16.82-.47,1.12-.31.31-.7.46-1.16.46-.31,0-.61-.07-.89-.2-.28-.14-.52-.32-.7-.56l.44-.49c.35.4.73.6,1.13.6.28,0,.51-.09.71-.27.19-.18.29-.39.29-.63,0-.2-.06-.37-.19-.53-.13-.15-.42-.34-.87-.57-.49-.25-.82-.5-.99-.74-.18-.24-.26-.52-.26-.84,0-.41.14-.75.42-1.02.28-.27.63-.41,1.06-.41.5,0,.99.24,1.5.73"></path></g></g></g></svg>